<?xml version="1.0" standalone="no"?>
<!DOCTYPE svg PUBLIC "-//W3C//DTD SVG 20010904//EN"
 "http://www.w3.org/TR/2001/REC-SVG-20010904/DTD/svg10.dtd">
<svg version="1.0" xmlns="http://www.w3.org/2000/svg"
 width="500.000000pt" height="500.000000pt" viewBox="0 0 500.000000 500.000000"
 preserveAspectRatio="xMidYMid meet">
<metadata>
Created by potrace 1.14, written by Peter Selinger 2001-2017
</metadata>
<g transform="translate(0.000000,500.000000) scale(0.100000,-0.100000)"
fill="#000000" stroke="none">
<path d="M847 4985 c-206 -45 -399 -250 -423 -450 -8 -60 -7 -4024 1 -4065 23
-127 66 -212 153 -299 80 -80 151 -122 252 -150 74 -21 83 -21 1685 -18 885 1
1621 5 1634 9 125 38 180 69 266 153 79 78 124 154 150 255 16 60 17 188 17
1580 1 1398 -1 1519 -16 1563 -10 27 -25 57 -34 69 -9 11 -307 311 -662 667
-409 409 -661 655 -690 671 l-45 25 -1115 2 c-873 1 -1128 -2 -1173 -12z"/>
</g>
</svg>
